			<svg
				xmlns="http://www.w3.org/2000/svg"
				width="136.716"
				height="26.934"
				viewBox="0 0 136.716 26.934"
			>
				<g id="layer1" transform="translate(-0.421 -286.658)">
					<g id="g1005" transform="translate(0.421 286.658)">
						<path
							d="M22.407,10.266H13.772a2.056,2.056,0,0,0-1.409.439,1.611,1.611,0,0,0-.479,1.265v1.19a1.612,1.612,0,0,0,.508,1.277,2.039,2.039,0,0,0,1.392.422h4.28a1.7,1.7,0,0,1,1.121.306,1.224,1.224,0,0,1,.341.965V35.19a2.131,2.131,0,0,0,.445,1.473,1.819,1.819,0,0,0,1.4.526H23.2a1.819,1.819,0,0,0,1.392-.526,2.045,2.045,0,0,0,.456-1.415V12.484a2.039,2.039,0,0,0-.7-1.629A3.061,3.061,0,0,0,22.407,10.266Z"
							transform="translate(-11.879 -10.26)"
							fill="#666"
						/>
						<path
							d="M41.029,14.564H34.294a1.9,1.9,0,0,0-1.328.422,1.588,1.588,0,0,0-.479,1.23v1.063a1.548,1.548,0,0,0,.5,1.242,2.01,2.01,0,0,0,1.352.41H41.07A1.877,1.877,0,0,0,42.4,18.5a1.64,1.64,0,0,0,.479-1.259V16.193a1.554,1.554,0,0,0-.5-1.242A2.01,2.01,0,0,0,41.029,14.564Z"
							transform="translate(21.61 -3.277)"
							fill="#666"
						/>
						<path
							d="M68.726,14.94a5.961,5.961,0,0,0-1.635-2.38,7.226,7.226,0,0,0-2.726-1.432,19.639,19.639,0,0,0-4.072-.676q-2.4-.191-5.672-.179h-.976q-3.263,0-5.672.179a19.69,19.69,0,0,0-4.043.7A7.18,7.18,0,0,0,41.2,12.583a6.019,6.019,0,0,0-1.64,2.357,13.608,13.608,0,0,0-.791,3.552,47.566,47.566,0,0,0-.208,4.95v.543a47.568,47.568,0,0,0,.191,4.95,13.608,13.608,0,0,0,.809,3.552,6.105,6.105,0,0,0,1.635,2.38A7.261,7.261,0,0,0,43.924,36.3a20.118,20.118,0,0,0,4.043.693q2.409.191,5.672.185h.976q3.275,0,5.672-.185A20.036,20.036,0,0,0,64.36,36.3a7.306,7.306,0,0,0,2.726-1.432,6.042,6.042,0,0,0,1.635-2.38,13.609,13.609,0,0,0,.8-3.552,46.028,46.028,0,0,0,.208-4.95v-.543a46.028,46.028,0,0,0-.208-4.95,13.609,13.609,0,0,0-.791-3.552Zm-4.505,8.849a33.4,33.4,0,0,1-.156,4.043,6.631,6.631,0,0,1-.7,2.559A3.263,3.263,0,0,1,61.772,31.8a9.2,9.2,0,0,1-2.836.6q-1.773.15-4.43.144h-.739c-1.767,0-3.235-.046-4.413-.144a9.2,9.2,0,0,1-2.859-.624,3.275,3.275,0,0,1-1.6-1.409,6.625,6.625,0,0,1-.7-2.559,35.613,35.613,0,0,1-.168-4.043v-.231a35.752,35.752,0,0,1,.168-4.043,6.44,6.44,0,0,1,.7-2.536,3.229,3.229,0,0,1,1.6-1.352,9.1,9.1,0,0,1,2.836-.578c1.155-.092,2.645-.133,4.413-.121h.739q2.651,0,4.43.121a9.1,9.1,0,0,1,2.836.578A3.217,3.217,0,0,1,63.343,17a6.446,6.446,0,0,1,.7,2.536,33.5,33.5,0,0,1,.156,4.043Z"
							transform="translate(31.486 -10.243)"
							fill="#666"
						/>
						<path
							d="M58.107,14.842a1.363,1.363,0,0,1,.936-.248H80.628a2.016,2.016,0,0,0,1.4-.433,1.6,1.6,0,0,0,.485-1.259V11.96a1.577,1.577,0,0,0-.5-1.271,2.074,2.074,0,0,0-1.386-.422H55.213a3.009,3.009,0,0,0-1.975.578,2.131,2.131,0,0,0-.7,1.687V22.807a1.906,1.906,0,0,0,.641,1.56,2.888,2.888,0,0,0,1.871.52H67.817q2.507,0,4.165.11a14.711,14.711,0,0,1,2.64.358,3.425,3.425,0,0,1,1.473.71,2.016,2.016,0,0,1,.624,1.069,6.971,6.971,0,0,1,.121,1.519v.474a5.377,5.377,0,0,1-.15,1.473,1.912,1.912,0,0,1-.676,1.022,3.818,3.818,0,0,1-1.519.647,16.266,16.266,0,0,1-2.68.335c-1.109.064-2.507.1-4.17.1H54.589a2.409,2.409,0,0,0-1.5.4,1.531,1.531,0,0,0-.537,1.288v.393a3.264,3.264,0,0,0,.11,1.04,1.375,1.375,0,0,0,.635.7,4.494,4.494,0,0,0,1.49.416,24.642,24.642,0,0,0,2.68.191q1.681.058,4.222.058H67.43q3.258,0,5.661-.144a28.972,28.972,0,0,0,4.043-.5,9.161,9.161,0,0,0,2.709-.959,4.494,4.494,0,0,0,1.629-1.513,6.019,6.019,0,0,0,.791-2.172,16.96,16.96,0,0,0,.2-2.928v-.508a14.719,14.719,0,0,0-.3-3.287,5.071,5.071,0,0,0-1.121-2.31,5.389,5.389,0,0,0-2.276-1.444,15.6,15.6,0,0,0-3.754-.745c-1.519-.15-3.367-.225-5.557-.219H59.014a1.409,1.409,0,0,1-.9-.225.93.93,0,0,1-.277-.757V15.668a1,1,0,0,1,.271-.826Z"
							transform="translate(54.2 -10.261)"
							fill="#666"
						/>
						<path
							d="M46.958,32.9H26.043A1.594,1.594,0,0,1,25,32.632a1.19,1.19,0,0,1-.329-.947V30.529a5.066,5.066,0,0,1,.3-1.918,2.674,2.674,0,0,1,1.155-1.305,6.354,6.354,0,0,1,2.31-.745,25.564,25.564,0,0,1,3.835-.237H37.1a32.639,32.639,0,0,0,5.684-.4,9.086,9.086,0,0,0,3.6-1.328A5.037,5.037,0,0,0,48.3,22.148a10.686,10.686,0,0,0,.578-3.754v-.849a9.455,9.455,0,0,0-.381-2.928,4.442,4.442,0,0,0-1.415-2.074,6.931,6.931,0,0,0-2.634-1.334,21.782,21.782,0,0,0-4.222-.739q-2.565-.214-6.169-.208H29.173q-2.68,0-4.494.058c-1.219.046-2.195.116-2.946.219A6.614,6.614,0,0,0,20,10.978a1.594,1.594,0,0,0-.791.716,2.31,2.31,0,0,0-.2,1.04v.277a1.825,1.825,0,0,0,.283,1.069,1.415,1.415,0,0,0,.757.5,4.442,4.442,0,0,0,1.121.121H34.556q2.31,0,3.876.121a14.307,14.307,0,0,1,2.53.375,3.98,3.98,0,0,1,1.456.676,2.068,2.068,0,0,1,.664,1,4.471,4.471,0,0,1,.156,1.363v.2A3.737,3.737,0,0,1,42.972,20a2.27,2.27,0,0,1-1.017,1.086,5.776,5.776,0,0,1-2.045.635,22.666,22.666,0,0,1-3.391.2H31.848a40.149,40.149,0,0,0-5.314.289,12.852,12.852,0,0,0-3.685.988,5.822,5.822,0,0,0-2.31,1.843,7.33,7.33,0,0,0-1.184,2.871,19.806,19.806,0,0,0-.341,4.043v3.021a2.022,2.022,0,0,0,.7,1.635,3.113,3.113,0,0,0,1.97.578H46.963a2.027,2.027,0,0,0,1.4-.433,1.583,1.583,0,0,0,.485-1.253V34.59a1.594,1.594,0,0,0-.5-1.271A2.1,2.1,0,0,0,46.958,32.9Z"
							transform="translate(-0.289 -10.261)"
							fill="#666"
						/>
					</g>
				</g>
			</svg>